<svg xmlns="http://www.w3.org/2000/svg">
<g xmlns="http://www.w3.org/2000/svg">
	<path d="M264.8954,277.737H29.3381c-1.0042-4.1655-6.0798-5.8167-9.342-3.0044c-2.4055,2.0742-2.6748,5.7057-0.6008,8.1115   c3.0637,3.5536,8.8506,2.1208,9.9417-2.4034h235.5576c1.0063,4.1749,6.0864,5.8109,9.3418,3.0044   c2.4058-2.0739,2.6748-5.7057,0.6006-8.1115C271.7734,271.78,265.9863,273.2128,264.8954,277.737z"/>
	<path d="M844.0038,274.7326c-3.2622-2.8123-8.3379-1.1611-9.3418,3.0044H599.1049c-1.0913-4.5242-6.8779-5.957-9.9419-2.4034   c-2.0742,2.4058-1.8052,6.0376,0.6006,8.1115c3.2554,2.8065,8.3354,1.1705,9.3423-3.0044h235.5576   c1.0908,4.5242,6.8779,5.957,9.9414,2.4034C846.6786,280.4384,846.4096,276.8069,844.0038,274.7326z"/>
	<path d="M431.9999,197.0711c2.551,0,4.6191-2.068,4.6191-4.619s-2.0681-4.619-4.6191-4.619s-4.6189,2.068-4.6189,4.619   S429.4489,197.0711,431.9999,197.0711z"/>
	<path d="M366.2629,302.1851c0.8557,1.2892,2.884,0.9224,3.2034-0.5916c1.3594-6.4454-0.2358-12.3883-4.2334-17.923   C362.5991,290.6474,362.7377,296.8742,366.2629,302.1851z"/>
	<path d="M351.9702,300.1386c0.2151,1.5322,2.2031,2.0775,3.1448,0.8497c4.0095-5.2264,5.1372-11.2753,3.9214-17.9938   C353.6479,288.1501,351.0839,293.8264,351.9702,300.1386z"/>
	<path d="M342.9069,295.9059c-0.1912,1.5353,1.5862,2.5791,2.8152,1.6389c5.2314-4.0026,7.895-9.5495,8.4697-16.3527   C347.6472,284.7673,343.6945,289.5804,342.9069,295.9059z"/>
	<path d="M493.7077,301.5935c0.3191,1.514,2.3479,1.8808,3.2034,0.5916c3.5249-5.3109,3.6636-11.5377,1.03-18.5146   C493.9433,289.2052,492.3483,295.148,493.7077,301.5935z"/>
	<path d="M504.1376,282.9945c-1.2158,6.7184-0.0879,12.7674,3.9214,17.9938c0.9419,1.2278,2.9297,0.6825,3.1448-0.8497   C512.0895,293.8264,509.5258,288.1501,504.1376,282.9945z"/>
	<path d="M508.9819,281.192c0.575,6.8032,3.2383,12.3501,8.47,16.3527c1.2288,0.9402,3.0063-0.1035,2.8152-1.6389   C519.4794,289.5804,515.5263,284.7673,508.9819,281.192z"/>
	<path d="M540.6725,253.0048c-2.147-0.7943-4.1316-2.0038-5.78-3.5928c-5.0261-4.8458-8.8748-9.9855-11.5005-15.4313   c-5.0137,8.5098-3.3345,15.7234,6.5579,21.3467c-5.5732,7.1279-5.0259,11.7475,9.1379,10.7866   c-5.8818,12.6852,5.8457,22.8192,17.4727,20.5098c2.0649-0.4101,3.1846-2.0997,2.4604-4.4896   c3.2114-1.4995,2.2354-6.2695-1.2681-6.427c-1.8647-0.0841-3.4446,1.3597-3.5283,3.2243   c-0.0859,1.9125,1.4624,3.6445,3.5928,3.5081c-1.8569,2.1657-3.8833,2.832-6.0933,1.8733   c-6.2957-2.7314-1.4119-14.7216,6.5869-13.5326c2.4482,0.3639,4.5898,0.9629,6.4424,1.7912   c7.8877,3.5277,10.5498,13.2881,6.0098,20.6395c-6.2764,10.163-16.7129,12.7415-29.4299,6.5363   c-12.8154-6.2533-21.8184-20.5302-33.4031-32.9301c-7.7109-8.2538-18.2971-12.6765-30.1553-14.8901   c-7.9436-1.4829-15.3984-0.9155-22.3889-2.0225c-10.968-1.7371-15.4851-9.3884-16.2693-15.3567   c-0.2795-2.127,1.0391-4.1682,3.0671-4.8684c7.3752-2.5461,10.4292,3.0991,8.6616,5.9347c0.1477-1.8109-1.2781-3.1671-2.905-3.1671   c-2.9229,0-4.0439,3.8383-1.5525,5.4043c-0.0518,0.0068-0.1091,0.0198-0.1592,0.0249c2.1252,1.3339,5.0002,1.1511,5.8455,0.4137   c4.1807-3.6483,3.4629-10.4474,1.0381-15.5541c-2.5835-5.4421-7.6116-6.199-14.396-5.0463   c0.5359-11.9073-6.3132-8.4637-7.1294-16.1289c-0.8152,7.6597-7.665,4.2245-7.1292,16.1289   c-6.7839-1.1527-11.8125-0.3959-14.3962,5.0463c-2.4243,5.1064-3.1421,11.9054,1.0383,15.5541   c0.8452,0.7378,3.7202,0.9202,5.8455-0.4137c-0.05-0.0051-0.1074-0.0181-0.1592-0.0249c2.4932-1.567,1.3687-5.4043-1.5525-5.4043   c-1.6255,0-3.0525,1.3545-2.905,3.1671c-1.8438-2.9575,1.4194-8.4349,8.6616-5.9347c2.0278,0.6998,3.3467,2.7415,3.0671,4.8683   c-0.7839,5.9684-5.301,13.62-16.2693,15.3568c-6.99,1.1072-14.4448,0.5396-22.3889,2.0225   c-11.8582,2.2139-22.4443,6.6362-30.1555,14.8901c-11.5845,12.4-20.5874,26.6768-33.4028,32.9301   c-12.717,6.2052-23.1533,3.6271-29.4299-6.5363c-4.5403-7.3514-1.8779-17.1118,6.0098-20.6395   c1.8528-0.8287,3.9941-1.4273,6.4421-1.7912c5.605-0.8332,9.7527,4.8419,9.4517,9.3693c-0.2598,3.9016-5.1045,6.7848-8.9578,2.2903   c2.1316,0.1368,3.6792-1.5962,3.5928-3.508c-0.0837-1.8646-1.6633-3.3085-3.5283-3.2244c-3.501,0.1575-4.48,4.9276-1.2683,6.427   c-0.7234,2.3889,0.395,4.0792,2.4607,4.4897c11.627,2.3093,23.3545-7.8243,17.4724-20.5098   c14.1641,0.9609,14.7114-3.6588,9.1382-10.7867c9.8923-5.6233,11.5715-12.8369,6.5576-21.3464   c-2.6255,5.4456-6.4741,10.5854-11.5005,15.4312c-1.6482,1.5886-3.6328,2.7983-5.7798,3.5928   c-12.0046,4.4424-21.843,9.913-28.7305,16.7834c-4.5801,4.5682-7.0369,10.9454-6.4485,17.3873   c0.9907,10.8445,7.7544,18.1274,23.0359,18.0507c22.8657-0.1148,40.7119-29.4095,42.311-32.128   c1.387,8.6649,12.3987,11.3876,17.6372,4.3188c0.4121,8.256,4.6604,13.7435,13.137,15.4228   c9.2,1.8828,16.0693-1.5833,22.9768-8.1765c4.7798-4.5624,10.2405-4.4777,15.9758-2.5234   c1.8596-6.8504-4.4185-12.3693-10.9839-10.1818c0.2371-2.3831-1.2642-4.5187-3.3096-5.0389   c-2.4031-0.6113-5.1443,1.113-5.6118,3.9366c-6.3723-6.1463-11.4939-4.521-15.78,2.2928   c-2.4578-0.6773-4.6604,1.2595-4.5542,3.6222c0.0896,1.9891,1.7747,3.529,3.7634,3.4394c3.3118-0.149,4.7002-4.3453,2.0552-6.4244   c4.3589-0.6569,7.7639,0.2591,9.9771,3.139c2.1077,7.1748-0.218,12.7195-8.3071,13.3806   c-11.4475,0.9357-18.1521-6.984-17.3132-18.8438c0.948-13.4056,15.332-22.0103,35.7615-17.2852   c17.5369,4.0564,23.7847,18.1029,20.3713,32.5026c-2.8052,11.8343-17.1431,16.1137-22.6523,6.2058   c2.1597,1.417,4.9905-0.2193,4.8752-2.7744c-0.0784-1.7404-1.5525-3.0879-3.2932-3.0096c-2.2646,0.1019-3.7402,2.526-2.6448,4.6116   c-1.9905,12.235,13.009,22.0516,22.4038,12.6182c-5.7893,10.7902-3.4355,21.322,4.4331,31.6785   c7.8687-10.3564,10.2222-20.8882,4.4331-31.6785c9.3948,9.4331,24.3943-0.3832,22.4038-12.6182   c1.095-2.0842-0.3782-4.5097-2.6443-4.6116c-1.7405-0.0783-3.2151,1.2692-3.2935,3.0096c-0.115,2.5583,2.7192,4.1891,4.8752,2.7744   c-5.509,9.9079-19.8472,5.6282-22.6523-6.2058c-3.4131-14.3994,2.835-28.4462,20.3713-32.5026   c20.4294-4.7251,34.8137,3.8796,35.7617,17.2852c0.8386,11.8598-5.866,19.7795-17.3135,18.8438   c-8.0889-0.6614-10.4146-6.2061-8.3071-13.3806c2.2134-2.8799,5.6179-3.7958,9.9771-3.139   c-2.6443,2.0787-1.2568,6.2757,2.0552,6.4244c1.9888,0.0896,3.6741-1.4503,3.7637-3.4394c0.106-2.3569-2.0908-4.3008-4.5544-3.6222   c-4.2861-6.8138-9.408-8.4391-15.7798-2.2928c-0.4678-2.8236-3.209-4.5479-5.6121-3.9366   c-2.0449,0.5201-3.5464,2.6558-3.3093,5.0389c-6.5654-2.1874-12.8438,3.3311-10.9841,10.1818   c5.7354-1.9542,11.1965-2.039,15.9761,2.5234c6.907,6.5933,13.7764,10.0592,22.9766,8.1765   c8.4768-1.6793,12.7251-7.1671,13.1372-15.4228c5.2437,7.0755,16.2517,4.336,17.637-4.3189   c1.5991,2.7189,19.4451,32.0132,42.3113,32.1281c15.2813,0.0767,22.0449-7.2062,23.0356-18.0507   c0.5889-6.4422-1.8682-12.8191-6.4478-17.3877C562.5151,262.9178,552.6772,257.4472,540.6725,253.0048z"/>
</g>
</svg>